<svg width="32" height="32" viewBox="0 0 32 32" fill="none" xmlns="http://www.w3.org/2000/svg">
<path fill-rule="evenodd" clip-rule="evenodd" d="M4.61802 4.61606C2.66602 6.57073 2.66602 9.71206 2.66602 15.9974C2.66602 22.2827 2.66602 25.4254 4.61802 27.3774C6.57268 29.3307 9.71402 29.3307 15.9993 29.3307C22.2847 29.3307 25.4273 29.3307 27.3793 27.3774C29.3327 25.4267 29.3327 22.2827 29.3327 15.9974C29.3327 9.71206 29.3327 6.5694 27.3793 4.61606C25.4287 2.66406 22.2847 2.66406 15.9993 2.66406C9.71402 2.66406 6.57135 2.66406 4.61802 4.61606ZM17.9833 8.59206C18.2393 8.66081 18.4575 8.82833 18.59 9.05783C18.7225 9.28734 18.7584 9.56005 18.69 9.81606L15.2393 22.6961C15.2053 22.8229 15.1466 22.9418 15.0666 23.046C14.9866 23.1502 14.8868 23.2376 14.773 23.3032C14.5432 23.4357 14.2702 23.4715 14.014 23.4027C13.7578 23.334 13.5394 23.1662 13.4069 22.9364C13.2744 22.7066 13.2386 22.4336 13.3073 22.1774L16.7593 9.29873C16.8281 9.0428 16.9956 8.82462 17.2251 8.69212C17.4546 8.55962 17.7273 8.52363 17.9833 8.59206ZM19.9593 11.2907C20.1469 11.1035 20.401 10.9983 20.666 10.9983C20.931 10.9983 21.1852 11.1035 21.3727 11.2907L21.6513 11.5681C22.498 12.4147 23.2047 13.1214 23.69 13.7574C24.202 14.4294 24.562 15.1387 24.562 15.9974C24.562 16.8561 24.202 17.5654 23.69 18.2374C23.2047 18.8734 22.498 19.5801 21.65 20.4267L21.3727 20.7041C21.2811 20.8023 21.1707 20.8811 21.0481 20.9358C20.9254 20.9904 20.793 21.0198 20.6587 21.0222C20.5244 21.0246 20.3911 20.9999 20.2666 20.9496C20.142 20.8993 20.0289 20.8244 19.934 20.7294C19.839 20.6345 19.7641 20.5214 19.7139 20.3969C19.6636 20.2723 19.6389 20.139 19.6412 20.0047C19.6436 19.8704 19.673 19.738 19.7276 19.6153C19.7823 19.4927 19.8611 19.3823 19.9593 19.2907L20.1873 19.0614C21.0967 18.1521 21.706 17.5414 22.0994 17.0241C22.4767 16.5307 22.562 16.2427 22.562 15.9974C22.562 15.7521 22.4767 15.4641 22.0994 14.9707C21.706 14.4547 21.0967 13.8427 20.1873 12.9334L19.9593 12.7041C19.7721 12.5166 19.6669 12.2624 19.6669 11.9974C19.6669 11.7324 19.7721 11.4782 19.9593 11.2907ZM10.626 11.2907C10.8156 11.1141 11.0663 11.0179 11.3254 11.0225C11.5844 11.0271 11.8316 11.132 12.0148 11.3152C12.1981 11.4985 12.303 11.7456 12.3076 12.0047C12.3122 12.2638 12.216 12.5145 12.0393 12.7041L11.8113 12.9334C10.902 13.8427 10.294 14.4534 9.89935 14.9707C9.52202 15.4641 9.43802 15.7521 9.43802 15.9974C9.43802 16.2427 9.52202 16.5307 9.89935 17.0241C10.294 17.5401 10.902 18.1521 11.8113 19.0614L12.0407 19.2907C12.1361 19.383 12.2123 19.4934 12.2646 19.6154C12.317 19.7375 12.3445 19.8687 12.3456 20.0015C12.3467 20.1342 12.3213 20.2659 12.271 20.3888C12.2206 20.5117 12.1463 20.6233 12.0524 20.7171C11.9585 20.811 11.8468 20.8852 11.7239 20.9354C11.6009 20.9856 11.4692 21.0109 11.3365 21.0096C11.2037 21.0084 11.0725 20.9808 10.9505 20.9283C10.8285 20.8758 10.7182 20.7996 10.626 20.7041L10.3487 20.4267C9.50068 19.5801 8.79402 18.8734 8.30868 18.2374C7.79668 17.5654 7.43802 16.8561 7.43802 15.9974C7.43802 15.1387 7.79802 14.4294 8.30868 13.7574C8.79402 13.1214 9.50068 12.4147 10.3487 11.5681L10.626 11.2907Z" fill="#F60900"/>
</svg>
