<svg width="32" height="32" viewBox="0 0 32 32" fill="none" xmlns="http://www.w3.org/2000/svg">
<path d="M7.11133 7.10806C7.11133 5.92944 7.57953 4.79909 8.41295 3.96568C9.24636 3.13227 10.3767 2.66406 11.5553 2.66406H20.4447C21.6235 2.66406 22.754 3.13234 23.5875 3.96588C24.4211 4.79941 24.8893 5.92993 24.8893 7.10873C24.8893 8.28753 24.4211 9.41805 23.5875 10.2516C22.754 11.0851 21.6235 11.5534 20.4447 11.5534H16.0007V24.8867C16.0004 25.7656 15.7396 26.6246 15.2512 27.3552C14.7627 28.0858 14.0687 28.6552 13.2567 28.9914C12.4447 29.3276 11.5513 29.4155 10.6894 29.2439C9.82743 29.0724 9.0357 28.6492 8.41428 28.0278C7.79285 27.4064 7.36963 26.6146 7.19812 25.7527C7.0266 24.8908 7.1145 23.9973 7.45069 23.1854C7.78688 22.3734 8.35627 21.6793 9.08688 21.1909C9.81748 20.7025 10.6765 20.4417 11.5553 20.4414C10.3767 20.4414 9.24636 19.9732 8.41295 19.1398C7.57953 18.3064 7.11133 17.176 7.11133 15.9974C7.11133 14.8188 7.57953 13.6884 8.41295 12.855C9.24636 12.0216 10.3767 11.5534 11.5553 11.5534C10.9716 11.5534 10.3936 11.4384 9.85437 11.215C9.31512 10.9916 8.82515 10.6641 8.41247 10.2513C7.99979 9.8385 7.67248 9.34844 7.44922 8.80912C7.22597 8.26979 7.11115 7.69177 7.11133 7.10806ZM16.0007 15.9974C16.0007 17.176 16.4689 18.3064 17.3023 19.1398C18.1357 19.9732 19.266 20.4414 20.4447 20.4414C21.6233 20.4414 22.7536 19.9732 23.587 19.1398C24.4205 18.3064 24.8887 17.176 24.8887 15.9974C24.8887 14.8188 24.4205 13.6884 23.587 12.855C22.7536 12.0216 21.6233 11.5534 20.4447 11.5534C19.266 11.5534 18.1357 12.0216 17.3023 12.855C16.4689 13.6884 16.0007 14.8188 16.0007 15.9974Z" fill="#F60900"/>
</svg>
