<svg width="32" height="32" viewBox="0 0 32 32" fill="none" xmlns="http://www.w3.org/2000/svg">
<path d="M10.6673 4C8.19196 4 5.81799 4.98333 4.06765 6.73367C2.31731 8.48401 1.33398 10.858 1.33398 13.3333C1.33398 15.8087 2.31731 18.1827 4.06765 19.933C5.81799 21.6833 8.19196 22.6667 10.6673 22.6667H12.094C11.9663 21.7824 11.9663 20.8843 12.094 20H10.6673C8.89921 20 7.20352 19.2976 5.95327 18.0474C4.70303 16.7971 4.00065 15.1014 4.00065 13.3333C4.00065 11.5652 4.70303 9.86953 5.95327 8.61929C7.20352 7.36905 8.89921 6.66667 10.6673 6.66667H21.334C22.3227 6.66647 23.299 6.88617 24.1923 7.30987C25.0856 7.73358 25.8735 8.35066 26.4989 9.11644C27.1243 9.88221 27.5715 10.7775 27.8082 11.7374C28.0449 12.6974 28.0651 13.698 27.8673 14.6667C28.6533 15.4365 29.297 16.3393 29.7687 17.3333C30.4435 15.9106 30.7474 14.3402 30.6521 12.7684C30.5568 11.1966 30.0654 9.67442 29.2235 8.34364C28.3817 7.01286 27.2168 5.91672 25.8373 5.15725C24.4579 4.39778 22.9087 3.99968 21.334 4H10.6673ZM14.6673 21.3333C14.6676 20.2939 14.9109 19.2689 15.3778 18.3402C15.8447 17.4115 16.5223 16.6049 17.3565 15.9848C18.1907 15.3646 19.1584 14.9481 20.1822 14.7685C21.206 14.5889 22.2576 14.6512 23.2531 14.9505C24.2485 15.2497 25.1602 15.7775 25.9154 16.4918C26.6705 17.2062 27.2481 18.0872 27.6021 19.0645C27.9561 20.0418 28.0767 21.0883 27.9542 22.1205C27.8317 23.1528 27.4696 24.142 26.8967 25.0093L30.2767 28.3907L28.3913 30.276L25.01 26.896C24.0051 27.5602 22.8391 27.9397 21.6358 27.9942C20.4326 28.0488 19.237 27.7763 18.1762 27.2057C17.1153 26.6352 16.2289 25.7879 15.6111 24.7539C14.9933 23.7199 14.6671 22.5378 14.6673 21.3333Z" fill="#F60900"/>
</svg>
