<svg width="32" height="32" viewBox="0 0 32 32" fill="none" xmlns="http://www.w3.org/2000/svg">
<g clip-path="url(#clip0_4510_52)">
<path fill-rule="evenodd" clip-rule="evenodd" d="M11.541 0.632356C8.44848 1.53321 5.69924 3.34524 3.65199 5.83203C1.60473 8.31883 0.354519 11.3649 0.0644531 14.5729H7.37874C7.8051 9.69121 9.22049 4.94732 11.5387 0.63007M7.37874 17.4301H0.0644531C0.353915 20.6382 1.60359 23.6846 3.65044 26.1718C5.6973 28.659 8.44628 30.4715 11.5387 31.3729C9.22049 27.0557 7.8051 22.3118 7.37874 17.4301ZM15.205 31.9832C12.4338 27.588 10.7347 22.6029 10.245 17.4301H21.7536C21.2639 22.6029 19.5648 27.588 16.7936 31.9832C16.2644 32.0095 15.7342 32.0095 15.205 31.9832ZM20.4622 31.3706C23.5543 30.4694 26.303 28.6572 28.3499 26.1704C30.3967 23.6837 31.6466 20.6378 31.9365 17.4301H24.6222C24.1958 22.3118 22.7804 27.0557 20.4622 31.3729M24.6222 14.5752H31.9365C31.647 11.3671 30.3973 8.3207 28.3505 5.83349C26.3036 3.34628 23.5546 1.53374 20.4622 0.632356C22.7804 4.94961 24.1958 9.69349 24.6222 14.5752ZM15.205 0.0197843C15.735 -0.00659477 16.2659 -0.00659477 16.7959 0.0197843C19.5663 4.41517 21.2646 9.40034 21.7536 14.5729H10.2473C10.7433 9.36836 12.4462 4.37864 15.205 0.0197843Z" fill="#F60900"/>
</g>
<defs>
<clipPath id="clip0_4510_52">
<rect width="32" height="32" fill="white"/>
</clipPath>
</defs>
</svg>
