<svg width="32" height="32" viewBox="0 0 32 32" fill="none" xmlns="http://www.w3.org/2000/svg">
<path fill-rule="evenodd" clip-rule="evenodd" d="M13.7469 2.00033H18.2069C18.8789 1.99033 19.5369 2.21033 20.0669 2.62433C20.6009 3.04433 20.9709 3.63433 21.1069 4.29833L21.4969 6.16833C21.6662 6.25899 21.8329 6.35233 21.9969 6.44833L23.8869 5.82833C24.2757 5.70284 24.6863 5.6592 25.0928 5.70016C25.4993 5.74112 25.8929 5.86579 26.2489 6.06633C26.6889 6.31433 27.0589 6.67033 27.3169 7.10633L29.5669 10.8183C29.9306 11.3935 30.074 12.0808 29.9708 12.7535C29.8675 13.4261 29.5244 14.0388 29.0049 14.4783H29.0009L27.5169 15.7443V16.2603L28.9829 17.5663C29.4924 17.9987 29.8318 18.598 29.9405 19.2573C30.0493 19.9166 29.9205 20.5932 29.5769 21.1663L27.3969 24.8863V24.8903C27.1374 25.3244 26.7697 25.6837 26.3297 25.9329C25.8898 26.1822 25.3926 26.3129 24.8869 26.3123C24.5741 26.314 24.263 26.2668 23.9649 26.1723L23.9549 26.1683L22.0809 25.5503C21.9142 25.649 21.7449 25.743 21.5729 25.8323L21.1849 27.7003C21.0479 28.3646 20.6793 28.9587 20.1449 29.3763C19.6135 29.792 18.9554 30.0123 18.2809 30.0003H13.7849C13.1117 30.0114 12.4551 29.7912 11.9249 29.3763C11.3908 28.9592 11.0223 28.3659 10.8849 27.7023L10.4949 25.8303C10.326 25.741 10.1593 25.6476 9.99488 25.5503L8.10488 26.1703C7.71606 26.2958 7.30548 26.3395 6.89897 26.2985C6.49247 26.2575 6.09884 26.1329 5.74288 25.9323C5.30228 25.6865 4.93398 25.3292 4.67488 24.8963L2.42288 21.1763C2.07369 20.6128 1.93421 19.9442 2.02894 19.2881C2.12367 18.6319 2.44655 18.0301 2.94088 17.5883L4.43488 15.7043L3.00888 14.4343C2.49871 14.0015 2.15905 13.4013 2.05061 12.7411C1.94216 12.0809 2.07198 11.4036 2.41688 10.8303L2.42088 10.8263L4.67488 7.10633C4.93053 6.6763 5.29308 6.31973 5.72729 6.07126C6.1615 5.82279 6.65261 5.69087 7.15288 5.68833C7.45421 5.67233 7.75154 5.70099 8.04488 5.77433L8.08888 5.78633L9.95888 6.44433C10.1229 6.34833 10.2895 6.25633 10.4589 6.16833L10.8469 4.30033C10.9838 3.63601 11.3524 3.04199 11.8869 2.62433C12.4149 2.21033 13.0749 1.99033 13.7469 2.00033ZM16.0009 12.0003C14.94 12.0003 13.9226 12.4218 13.1724 13.1719C12.4223 13.922 12.0009 14.9395 12.0009 16.0003C12.0009 17.0612 12.4223 18.0786 13.1724 18.8288C13.9226 19.5789 14.94 20.0003 16.0009 20.0003C17.0617 20.0003 18.0792 19.5789 18.8293 18.8288C19.5794 18.0786 20.0009 17.0612 20.0009 16.0003C20.0009 14.9395 19.5794 13.922 18.8293 13.1719C18.0792 12.4218 17.0617 12.0003 16.0009 12.0003ZM10.0009 16.0003C10.0009 14.409 10.633 12.8829 11.7582 11.7577C12.8835 10.6325 14.4096 10.0003 16.0009 10.0003C17.5922 10.0003 19.1183 10.6325 20.2435 11.7577C21.3687 12.8829 22.0009 14.409 22.0009 16.0003C22.0009 17.5916 21.3687 19.1177 20.2435 20.243C19.1183 21.3682 17.5922 22.0003 16.0009 22.0003C14.4096 22.0003 12.8835 21.3682 11.7582 20.243C10.633 19.1177 10.0009 17.5916 10.0009 16.0003Z" fill="#F60900"/>
</svg>
