<svg width="32" height="32" viewBox="0 0 32 32" fill="none" xmlns="http://www.w3.org/2000/svg">
<g clip-path="url(#clip0_4511_68)">
<path d="M16 0C12.8355 0 9.74207 0.938384 7.11088 2.69649C4.4797 4.45459 2.42894 6.95345 1.21793 9.87707C0.00693258 12.8007 -0.309921 16.0178 0.307443 19.1214C0.924806 22.2251 2.44866 25.0761 4.6863 27.3137C6.92394 29.5514 9.77487 31.0752 12.8786 31.6926C15.9823 32.3099 19.1993 31.9931 22.1229 30.7821C25.0466 29.5711 27.5454 27.5203 29.3035 24.8891C31.0616 22.2579 32 19.1645 32 16C32 11.7565 30.3143 7.68687 27.3137 4.68629C24.3131 1.68571 20.2435 0 16 0ZM24.72 11.6133L24 13.7067L22.9067 17.3333L21.7867 20.9067C21.7867 20.9067 21.72 21.1733 21.64 21.44C20.7733 24.64 20.6667 25.0533 19.7733 25.0533C19.5552 25.0525 19.3434 24.9804 19.1701 24.848C18.9968 24.7156 18.8715 24.5302 18.8133 24.32L16 14.08L13.12 24.2667C13.0594 24.4744 12.9331 24.6568 12.76 24.7867C12.5869 24.9165 12.3764 24.9867 12.16 24.9867C11.9436 24.9867 11.7331 24.9165 11.56 24.7867C11.3869 24.6568 11.2606 24.4744 11.2 24.2667L7.58667 11.3733H6.66667C6.39615 11.3733 6.13671 11.2659 5.94543 11.0746C5.75414 10.8833 5.64667 10.6239 5.64667 10.3533C5.64667 10.0828 5.75414 9.82337 5.94543 9.63209C6.13671 9.4408 6.39615 9.33333 6.66667 9.33333H10.52C10.7852 9.33333 11.0396 9.43869 11.2271 9.62623C11.4147 9.81376 11.52 10.0681 11.52 10.3333C11.52 10.5986 11.4147 10.8529 11.2271 11.0404C11.0396 11.228 10.7852 11.3333 10.52 11.3333H9.66667L12.16 20.24L14.6667 11.3733H13.8C13.5348 11.3733 13.2804 11.268 13.0929 11.0804C12.9054 10.8929 12.8 10.6386 12.8 10.3733C12.8 10.1081 12.9054 9.85376 13.0929 9.66623C13.2804 9.47869 13.5348 9.37333 13.8 9.37333H17.6C17.8652 9.37333 18.1196 9.47869 18.3071 9.66623C18.4947 9.85376 18.6 10.1081 18.6 10.3733C18.6 10.6386 18.4947 10.8929 18.3071 11.0804C18.1196 11.268 17.8652 11.3733 17.6 11.3733H17.3333L19.8667 20.4533V20.2667L20.9867 16.68L22.6933 11.3467L22.8267 10.9733C22.9417 10.711 23.0138 10.4319 23.04 10.1467C23.0488 10.0848 23.0488 10.0219 23.04 9.96C22.9402 9.83561 22.7983 9.75203 22.6411 9.72501C22.4839 9.698 22.3223 9.72941 22.1867 9.81333C21.9657 9.96009 21.6954 10.013 21.4354 9.96052C21.1753 9.90801 20.9468 9.75435 20.8 9.53333C20.6533 9.31232 20.6003 9.04206 20.6528 8.78201C20.7053 8.52196 20.859 8.29342 21.08 8.14667C21.6717 7.76871 22.3885 7.63933 23.075 7.7866C23.7614 7.93388 24.3621 8.34593 24.7467 8.93333C24.943 9.25158 25.0575 9.61344 25.08 9.98667C25.0796 10.5486 24.9568 11.1037 24.72 11.6133Z" fill="#F60900"/>
</g>
<defs>
<clipPath id="clip0_4511_68">
<rect width="32" height="32" fill="white"/>
</clipPath>
</defs>
</svg>
